<svg width="166" height="31" viewBox="0 0 166 31" fill="none" xmlns="http://www.w3.org/2000/svg">
<g clip-path="url(#clip0)">
<path d="M59.7287 6.54C62.4228 6.54 62.7391 6.55083 63.8039 6.59419C64.7887 6.63392 65.3212 6.78204 65.6774 6.90848C66.1498 7.07465 66.4861 7.26973 66.8384 7.58763C67.1907 7.90554 67.4108 8.20899 67.591 8.63527C67.7271 8.95679 67.8952 9.43726 67.9393 10.3259C67.9873 11.2869 67.9993 11.5723 67.9993 14.0035C67.9993 16.4348 67.9873 16.7201 67.9393 17.6811C67.8952 18.5698 67.7311 19.0502 67.591 19.3718C67.4068 19.798 67.1907 20.1015 66.8384 20.4194C66.4861 20.7373 66.1498 20.936 65.6774 21.0985C65.3212 21.2214 64.7887 21.3731 63.8039 21.4128C62.7391 21.4562 62.4228 21.467 59.7287 21.467C57.0345 21.467 56.7182 21.4562 55.6534 21.4128C54.6686 21.3731 54.1361 21.225 53.7799 21.0985C53.3075 20.9324 52.9712 20.7373 52.6189 20.4194C52.2666 20.1015 52.0465 19.798 51.8663 19.3718C51.7302 19.0502 51.5621 18.5698 51.518 17.6811C51.47 16.7201 51.458 16.4348 51.458 14.0035C51.458 11.5723 51.47 11.2869 51.518 10.3259C51.5621 9.43726 51.7262 8.95679 51.8663 8.63527C52.0505 8.20899 52.2666 7.90554 52.6189 7.58763C52.9712 7.26973 53.3075 7.07104 53.7799 6.90848C54.1361 6.78565 54.6686 6.63392 55.6534 6.59419C56.7182 6.54722 57.0385 6.54 59.7287 6.54ZM59.7287 4.8999C56.9904 4.8999 56.6462 4.91074 55.5693 4.95409C54.4964 4.99744 53.7638 5.15278 53.1233 5.37676C52.4588 5.60796 51.8983 5.92225 51.3379 6.42801C50.7774 6.93376 50.4332 7.44313 50.173 8.0392C49.9248 8.61721 49.7526 9.27831 49.7046 10.2501C49.6565 11.2182 49.6445 11.5289 49.6445 13.9999C49.6445 16.4709 49.6565 16.7816 49.7046 17.7533C49.7526 18.7215 49.9248 19.3826 50.173 19.9642C50.4292 20.5639 50.7774 21.0696 51.3379 21.5754C51.8983 22.0812 52.4628 22.3918 53.1233 22.6267C53.7638 22.8506 54.4964 23.006 55.5733 23.0493C56.6502 23.0927 56.9904 23.1035 59.7327 23.1035C62.4749 23.1035 62.8151 23.0927 63.892 23.0493C64.9649 23.006 65.6975 22.8506 66.342 22.6267C67.0065 22.3954 67.567 22.0812 68.1274 21.5754C68.6879 21.0696 69.0321 20.5603 69.2924 19.9642C69.5406 19.3862 69.7127 18.7251 69.7607 17.7533C69.8088 16.7816 69.8208 16.4745 69.8208 13.9999C69.8208 11.5253 69.8088 11.2182 69.7607 10.2465C69.7127 9.2783 69.5406 8.61721 69.2924 8.03559C69.0362 7.43591 68.6879 6.93015 68.1274 6.4244C67.567 5.91864 67.0025 5.60796 66.342 5.37315C65.7015 5.14917 64.9689 4.99383 63.892 4.95048C62.8111 4.91074 62.4669 4.8999 59.7287 4.8999Z" fill="#BCBCBC"/>
<path d="M59.7285 9.32886C56.8702 9.32886 54.5483 11.4205 54.5483 14.0035C54.5483 16.5865 56.8662 18.6781 59.7285 18.6781C62.5908 18.6781 64.9087 16.5865 64.9087 14.0035C64.9087 11.4205 62.5908 9.32886 59.7285 9.32886ZM59.7285 17.0344C57.871 17.0344 56.3658 15.6761 56.3658 13.9999C56.3658 12.3237 57.871 10.9653 59.7285 10.9653C61.586 10.9653 63.0912 12.3237 63.0912 13.9999C63.0912 15.6761 61.586 17.0344 59.7285 17.0344Z" fill="#BCBCBC"/>
<path d="M65.1128 10.232C65.7805 10.232 66.3218 9.74357 66.3218 9.14104C66.3218 8.5385 65.7805 8.05005 65.1128 8.05005C64.4451 8.05005 63.9038 8.5385 63.9038 9.14104C63.9038 9.74357 64.4451 10.232 65.1128 10.232Z" fill="#BCBCBC"/>
</g>
<g clip-path="url(#clip1)">
<path d="M114.028 14.0553C114.028 8.99839 109.513 4.8999 103.943 4.8999C98.3736 4.8999 93.8594 8.99839 93.8594 14.0553C93.8594 18.6259 97.5464 22.4132 102.368 23.0999V16.7018H99.8074V14.0553H102.368V12.0383C102.368 9.74405 103.873 8.47624 106.177 8.47624C107.28 8.47624 108.434 8.65506 108.434 8.65506V10.9082H107.162C105.909 10.9082 105.519 11.6145 105.519 12.3387V14.0553H108.316L107.869 16.7018H105.519V23.0999C110.341 22.4132 114.028 18.6259 114.028 14.0553Z" fill="#BCBCBC"/>
</g>
<path fill-rule="evenodd" clip-rule="evenodd" d="M149.371 7.26367C144.182 7.26367 139.998 10.2845 139.998 13.9519C139.998 16.3323 141.738 18.4167 144.349 19.607L143.466 22.5856C143.449 22.6302 143.446 22.6781 143.458 22.724C143.47 22.7699 143.496 22.8119 143.533 22.8453C143.586 22.888 143.655 22.9116 143.727 22.9118C143.786 22.9075 143.842 22.8864 143.887 22.8514L147.69 20.5374C148.252 20.6073 148.817 20.6436 149.384 20.6461C154.566 20.6461 158.757 17.6253 158.757 13.9519C158.757 10.2785 154.553 7.26367 149.371 7.26367ZM143.278 12.8945H142.253C142.126 12.8979 142.001 12.8685 141.892 12.81C141.843 12.7825 141.802 12.7464 141.769 12.7037C141.737 12.6611 141.715 12.6129 141.704 12.5622C141.701 12.5301 141.701 12.4978 141.704 12.4656C141.701 12.4054 141.714 12.3454 141.742 12.2907C141.77 12.236 141.812 12.1883 141.865 12.1514C141.982 12.0751 142.123 12.0348 142.267 12.0366H145.353C145.481 12.0325 145.607 12.0642 145.715 12.1272C145.764 12.1534 145.807 12.1893 145.839 12.2321C145.872 12.2749 145.893 12.3237 145.902 12.375C145.906 12.4051 145.906 12.4355 145.902 12.4656C145.905 12.5266 145.892 12.5875 145.865 12.6431C145.837 12.6988 145.794 12.7476 145.742 12.7858C145.628 12.862 145.488 12.9004 145.347 12.8945H144.356V16.0725C144.36 16.1402 144.348 16.2079 144.322 16.2714C144.295 16.3348 144.254 16.3926 144.202 16.4411C144.151 16.4874 144.091 16.5237 144.024 16.5476C143.957 16.5716 143.885 16.5826 143.813 16.58C143.688 16.5832 143.565 16.547 143.465 16.4773C143.371 16.4093 143.306 16.3127 143.284 16.2054C143.278 16.1613 143.278 16.1166 143.284 16.0725L143.278 12.8945ZM146.392 12.0305C146.297 12.0867 146.227 12.1728 146.198 12.2722L144.779 15.7463C144.771 15.7649 144.762 15.7841 144.753 15.8035C144.729 15.853 144.705 15.9039 144.705 15.9517C144.693 16.0117 144.693 16.073 144.705 16.1329C144.701 16.1671 144.701 16.2015 144.705 16.2357C144.725 16.3359 144.784 16.4261 144.872 16.4894C144.963 16.5507 145.074 16.5827 145.187 16.58C145.291 16.5919 145.397 16.5707 145.486 16.52C145.576 16.4693 145.642 16.3923 145.676 16.3021L145.957 15.559H147.718L147.999 16.3021C148.033 16.3906 148.099 16.4661 148.187 16.5165C148.274 16.5669 148.378 16.5893 148.481 16.58C148.548 16.5815 148.615 16.5704 148.677 16.5476C148.739 16.5247 148.796 16.4905 148.842 16.4471C148.891 16.4076 148.929 16.359 148.955 16.3047C148.98 16.2504 148.992 16.1918 148.99 16.1329C148.992 16.0947 148.992 16.0564 148.99 16.0182C148.967 15.9261 148.937 15.8353 148.903 15.7463L147.564 12.3326C147.532 12.2117 147.45 12.106 147.336 12.0366C147.228 11.9812 147.105 11.954 146.981 11.958H146.727C146.61 11.9533 146.494 11.9785 146.392 12.0305ZM146.231 14.8763L146.867 13.0637L147.497 14.8763H146.231ZM149.143 12.4657C149.136 12.3301 149.189 12.1976 149.29 12.0971C149.342 12.0503 149.404 12.0138 149.472 11.9898C149.54 11.9659 149.612 11.9551 149.685 11.9581C149.811 11.9568 149.933 11.9929 150.034 12.0609C150.127 12.1317 150.188 12.2303 150.208 12.3387C150.214 12.3808 150.214 12.4236 150.208 12.4657V15.6437H152.049C152.176 15.6421 152.302 15.6735 152.41 15.7342C152.459 15.7613 152.501 15.7975 152.533 15.8401C152.566 15.8828 152.588 15.9311 152.598 15.982V16.0726C152.601 16.1328 152.588 16.1927 152.56 16.2474C152.532 16.3021 152.49 16.3499 152.437 16.3868C152.32 16.4631 152.18 16.5033 152.035 16.5015H149.772C149.628 16.5099 149.485 16.476 149.364 16.4049C149.256 16.3319 149.184 16.2234 149.163 16.1028C149.158 16.0364 149.158 15.9698 149.163 15.9034L149.143 12.4657ZM152.866 12.0972C152.767 12.1989 152.715 12.3305 152.719 12.4657L152.678 16.0424C152.672 16.0865 152.672 16.1313 152.678 16.1754C152.7 16.2827 152.765 16.3792 152.859 16.4472C152.956 16.516 153.077 16.5523 153.201 16.55C153.275 16.5527 153.348 16.5418 153.417 16.5179C153.487 16.494 153.549 16.4576 153.602 16.4109C153.701 16.3092 153.754 16.1776 153.75 16.0424V15.0335L154.346 14.4715L155.591 16.2841C155.642 16.369 155.716 16.4416 155.805 16.4955C155.887 16.5346 155.98 16.5534 156.073 16.55C156.213 16.5517 156.35 16.5113 156.461 16.4351C156.521 16.3895 156.567 16.3317 156.596 16.2665C156.625 16.2012 156.636 16.1305 156.629 16.0605V16.0304C156.592 15.9288 156.537 15.8329 156.468 15.7464V15.6859L155.129 13.813L156.24 12.7134C156.289 12.6634 156.332 12.6088 156.367 12.5503C156.402 12.4951 156.421 12.4326 156.421 12.369C156.418 12.3551 156.418 12.3407 156.421 12.3268C156.424 12.3148 156.424 12.3024 156.421 12.2905C156.412 12.2417 156.391 12.1952 156.361 12.1537C156.331 12.1121 156.292 12.0765 156.247 12.0488C156.15 11.9892 156.036 11.9576 155.919 11.9582C155.839 11.9567 155.76 11.9756 155.691 12.0126C155.618 12.0651 155.549 12.1215 155.484 12.1817L153.79 13.9459V12.4657C153.793 12.4235 153.793 12.381 153.79 12.3388C153.768 12.2297 153.704 12.1311 153.609 12.0609C153.499 11.9888 153.366 11.9531 153.23 11.9597C153.095 11.9663 152.966 12.0149 152.866 12.0972Z" fill="#BCBCBC"/>
<g clip-path="url(#clip2)">
<path fill-rule="evenodd" clip-rule="evenodd" d="M22.8915 5.61426H8.035C5.93227 5.61426 4.21973 7.16619 4.21973 9.0572V17.3907C4.21973 19.2882 5.93949 20.8336 8.035 20.8336H13.281L14.1843 22.2421L15.073 23.631C15.232 23.8853 15.6367 23.8853 15.8029 23.631L16.6916 22.2421L17.5949 20.8336H22.8987C25.0014 20.8336 26.714 19.2817 26.714 17.3907V9.06372C26.714 7.16619 24.9942 5.61426 22.8915 5.61426ZM16.5037 11.7177C15.3548 11.7177 14.4226 12.5458 14.4226 13.5695C14.4226 14.5933 15.3548 15.4214 16.5037 15.4214C17.6526 15.4214 18.5848 14.5933 18.5848 13.5695C18.5848 12.5458 17.6598 11.7177 16.5037 11.7177ZM16.5037 14.4564C15.9545 14.4564 15.5065 14.0586 15.5065 13.5695C15.5065 13.0805 15.9545 12.6827 16.5037 12.6827C17.0529 12.6827 17.5009 13.0805 17.5009 13.5695C17.5009 14.0586 17.0601 14.4564 16.5037 14.4564ZM8.72866 12.1415C9.05382 11.8742 9.47293 11.7177 9.92093 11.7177C10.9615 11.7177 11.7924 12.5523 11.7924 13.5761C11.7924 14.5998 10.9542 15.428 9.92093 15.428C9.4657 15.428 9.05382 15.2649 8.72866 15.0041V15.3367H7.57251V10.6091H8.72866V12.1415ZM8.73588 13.9347C8.89485 14.2673 9.26337 14.4955 9.6897 14.4955C10.2678 14.4955 10.7302 14.0847 10.7302 13.5696C10.7302 13.0544 10.2678 12.6436 9.6897 12.6436C9.26337 12.6436 8.89485 12.8718 8.73588 13.2044C8.67808 13.3152 8.64917 13.4391 8.64917 13.5696C8.64917 13.7 8.6853 13.8239 8.73588 13.9347ZM22.1905 11.7959V12.0894C21.8654 11.8611 21.4607 11.7242 21.0272 11.7242C19.9649 11.7242 19.1051 12.5262 19.1051 13.5109C19.1051 14.4955 19.9649 15.2976 21.0272 15.2976C21.4679 15.2976 21.8726 15.1606 22.1905 14.9324V15.428C22.1905 15.428 22.0749 15.917 21.2656 15.917V16.8364C21.2656 16.8364 22.1399 16.9277 22.9203 16.2235C22.9203 16.2235 23.2816 15.8779 23.3611 15.4214V11.7959H22.1905ZM21.2439 14.4173C20.6586 14.4173 20.189 14.0065 20.189 13.5044C20.189 13.0023 20.6659 12.5915 21.2439 12.5915C21.6558 12.5915 22.0171 12.8001 22.1905 13.1001C22.2628 13.224 22.2989 13.3609 22.2989 13.5044C22.2989 13.6478 22.2556 13.7913 22.1905 13.9086C22.0171 14.2151 21.6558 14.4173 21.2439 14.4173ZM11.9225 11.4634V10.5179C11.9225 10.5179 12.6885 10.4266 13.3677 11.1504C13.3677 11.1504 13.6784 11.5025 13.7507 11.972V11.9981V15.3367H12.5584V11.9981C12.4573 11.5286 11.9225 11.4634 11.9225 11.4634Z" fill="#BCBCBC"/>
</g>
<defs>
<clipPath id="clip0">
<rect width="20.1682" height="18.2" fill="white" transform="translate(49.6445 4.8999)"/>
</clipPath>
<clipPath id="clip1">
<rect width="20.1682" height="18.2" fill="white" transform="translate(93.8594 4.8999)"/>
</clipPath>
<clipPath id="clip2">
<rect width="31.028" height="28" fill="white"/>
</clipPath>
</defs>
</svg>
