<svg width="559" height="178" viewBox="0 0 559 178" fill="none" xmlns="http://www.w3.org/2000/svg">
<path d="M42.2495 80.32C34.4029 80.32 27.2895 78.6333 20.9095 75.26C14.6029 71.8133 9.6162 67.0833 5.94953 61.07C2.3562 54.9833 0.559531 48.1267 0.559531 40.5C0.559531 32.8733 2.3562 26.0533 5.94953 20.04C9.6162 13.9533 14.6029 9.22333 20.9095 5.85C27.2895 2.40333 34.4395 0.679999 42.3595 0.679999C49.0329 0.679999 55.0462 1.85333 60.3995 4.2C65.8262 6.54667 70.3729 9.92 74.0395 14.32L62.5995 24.88C57.3929 18.8667 50.9395 15.86 43.2395 15.86C38.4729 15.86 34.2195 16.9233 30.4795 19.05C26.7395 21.1033 23.8062 24 21.6795 27.74C19.6262 31.48 18.5995 35.7333 18.5995 40.5C18.5995 45.2667 19.6262 49.52 21.6795 53.26C23.8062 57 26.7395 59.9333 30.4795 62.06C34.2195 64.1133 38.4729 65.14 43.2395 65.14C50.9395 65.14 57.3929 62.0967 62.5995 56.01L74.0395 66.57C70.3729 71.0433 65.8262 74.4533 60.3995 76.8C54.9729 79.1467 48.9229 80.32 42.2495 80.32ZM123.363 80.32C115.37 80.32 108.147 78.5967 101.693 75.15C95.3134 71.7033 90.29 66.9733 86.6234 60.96C83.03 54.8733 81.2334 48.0533 81.2334 40.5C81.2334 32.9467 83.03 26.1633 86.6234 20.15C90.29 14.0633 95.3134 9.29666 101.693 5.85C108.147 2.40333 115.37 0.679999 123.363 0.679999C131.357 0.679999 138.543 2.40333 144.923 5.85C151.303 9.29666 156.327 14.0633 159.993 20.15C163.66 26.1633 165.493 32.9467 165.493 40.5C165.493 48.0533 163.66 54.8733 159.993 60.96C156.327 66.9733 151.303 71.7033 144.923 75.15C138.543 78.5967 131.357 80.32 123.363 80.32ZM123.363 65.14C127.91 65.14 132.017 64.1133 135.683 62.06C139.35 59.9333 142.21 57 144.263 53.26C146.39 49.52 147.453 45.2667 147.453 40.5C147.453 35.7333 146.39 31.48 144.263 27.74C142.21 24 139.35 21.1033 135.683 19.05C132.017 16.9233 127.91 15.86 123.363 15.86C118.817 15.86 114.71 16.9233 111.043 19.05C107.377 21.1033 104.48 24 102.353 27.74C100.3 31.48 99.2734 35.7333 99.2734 40.5C99.2734 45.2667 100.3 49.52 102.353 53.26C104.48 57 107.377 59.9333 111.043 62.06C114.71 64.1133 118.817 65.14 123.363 65.14ZM283.674 16.52H259.034V1.99999H326.134V16.52H301.494V79H283.674V16.52ZM456.791 80.32C448.944 80.32 441.831 78.6333 435.451 75.26C429.144 71.8133 424.157 67.0833 420.491 61.07C416.897 54.9833 415.101 48.1267 415.101 40.5C415.101 32.8733 416.897 26.0533 420.491 20.04C424.157 13.9533 429.144 9.22333 435.451 5.85C441.831 2.40333 448.981 0.679999 456.901 0.679999C463.574 0.679999 469.587 1.85333 474.941 4.2C480.367 6.54667 484.914 9.92 488.581 14.32L477.141 24.88C471.934 18.8667 465.481 15.86 457.781 15.86C453.014 15.86 448.761 16.9233 445.021 19.05C441.281 21.1033 438.347 24 436.221 27.74C434.167 31.48 433.141 35.7333 433.141 40.5C433.141 45.2667 434.167 49.52 436.221 53.26C438.347 57 441.281 59.9333 445.021 62.06C448.761 64.1133 453.014 65.14 457.781 65.14C465.481 65.14 471.934 62.0967 477.141 56.01L488.581 66.57C484.914 71.0433 480.367 74.4533 474.941 76.8C469.514 79.1467 463.464 80.32 456.791 80.32ZM515.812 16.52H491.172V1.99999H558.272V16.52H533.632V79H515.812V16.52ZM267.271 178L267.161 131.8L244.501 169.86H236.471L213.921 132.79V178H197.201V101H211.941L240.761 148.85L269.141 101H283.771L283.991 178H267.271Z" fill="#3476C0"/>
</svg>
