<svg width="984" height="317" viewBox="0 0 984 317" fill="none" xmlns="http://www.w3.org/2000/svg">
<path d="M257.25 90.32C249.403 90.32 242.29 88.6333 235.91 85.26C229.603 81.8133 224.616 77.0833 220.95 71.07C217.356 64.9833 215.56 58.1267 215.56 50.5C215.56 42.8733 217.356 36.0533 220.95 30.04C224.616 23.9533 229.603 19.2233 235.91 15.85C242.29 12.4033 249.44 10.68 257.36 10.68C264.033 10.68 270.046 11.8533 275.4 14.2C280.826 16.5467 285.373 19.92 289.04 24.32L277.6 34.88C272.393 28.8667 265.94 25.86 258.24 25.86C253.473 25.86 249.22 26.9233 245.48 29.05C241.74 31.1033 238.806 34 236.68 37.74C234.626 41.48 233.6 45.7333 233.6 50.5C233.6 55.2667 234.626 59.52 236.68 63.26C238.806 67 241.74 69.9333 245.48 72.06C249.22 74.1133 253.473 75.14 258.24 75.14C265.94 75.14 272.393 72.0967 277.6 66.01L289.04 76.57C285.373 81.0433 280.826 84.4533 275.4 86.8C269.973 89.1467 263.923 90.32 257.25 90.32ZM338.363 90.32C330.37 90.32 323.147 88.5967 316.693 85.15C310.313 81.7033 305.29 76.9733 301.623 70.96C298.03 64.8733 296.233 58.0533 296.233 50.5C296.233 42.9467 298.03 36.1633 301.623 30.15C305.29 24.0633 310.313 19.2967 316.693 15.85C323.147 12.4033 330.37 10.68 338.363 10.68C346.357 10.68 353.543 12.4033 359.923 15.85C366.303 19.2967 371.327 24.0633 374.993 30.15C378.66 36.1633 380.493 42.9467 380.493 50.5C380.493 58.0533 378.66 64.8733 374.993 70.96C371.327 76.9733 366.303 81.7033 359.923 85.15C353.543 88.5967 346.357 90.32 338.363 90.32ZM338.363 75.14C342.91 75.14 347.017 74.1133 350.683 72.06C354.35 69.9333 357.21 67 359.263 63.26C361.39 59.52 362.453 55.2667 362.453 50.5C362.453 45.7333 361.39 41.48 359.263 37.74C357.21 34 354.35 31.1033 350.683 29.05C347.017 26.9233 342.91 25.86 338.363 25.86C333.817 25.86 329.71 26.9233 326.043 29.05C322.377 31.1033 319.48 34 317.353 37.74C315.3 41.48 314.273 45.7333 314.273 50.5C314.273 55.2667 315.3 59.52 317.353 63.26C319.48 67 322.377 69.9333 326.043 72.06C329.71 74.1133 333.817 75.14 338.363 75.14ZM498.674 26.52H474.034V12H541.134V26.52H516.494V89H498.674V26.52ZM671.791 90.32C663.944 90.32 656.831 88.6333 650.451 85.26C644.144 81.8133 639.157 77.0833 635.491 71.07C631.897 64.9833 630.101 58.1267 630.101 50.5C630.101 42.8733 631.897 36.0533 635.491 30.04C639.157 23.9533 644.144 19.2233 650.451 15.85C656.831 12.4033 663.981 10.68 671.901 10.68C678.574 10.68 684.587 11.8533 689.941 14.2C695.367 16.5467 699.914 19.92 703.581 24.32L692.141 34.88C686.934 28.8667 680.481 25.86 672.781 25.86C668.014 25.86 663.761 26.9233 660.021 29.05C656.281 31.1033 653.347 34 651.221 37.74C649.167 41.48 648.141 45.7333 648.141 50.5C648.141 55.2667 649.167 59.52 651.221 63.26C653.347 67 656.281 69.9333 660.021 72.06C663.761 74.1133 668.014 75.14 672.781 75.14C680.481 75.14 686.934 72.0967 692.141 66.01L703.581 76.57C699.914 81.0433 695.367 84.4533 689.941 86.8C684.514 89.1467 678.464 90.32 671.791 90.32ZM730.812 26.52H706.172V12H773.272V26.52H748.632V89H730.812V26.52ZM482.271 188L482.161 141.8L459.501 179.86H451.471L428.921 142.79V188H412.201V111H426.941L455.761 158.85L484.141 111H498.771L498.991 188H482.271Z" fill="#3476C0"/>
<path d="M27.4412 226.3V224.3H25.4412V226.3H27.4412ZM27.4412 246.65H25.4412V248.65H27.4412V246.65ZM63.0812 246.65H65.0812V244.65H63.0812V246.65ZM63.0812 260.95V262.95H65.0812V260.95H63.0812ZM27.4412 260.95V258.95H25.4412V260.95H27.4412ZM27.4412 289V291H29.4412V289H27.4412ZM9.62121 289H7.62121V291H9.62121V289ZM9.62121 212V210H7.62121V212H9.62121ZM67.8112 212H69.8112V210H67.8112V212ZM67.8112 226.3V228.3H69.8112V226.3H67.8112ZM25.4412 226.3V246.65H29.4412V226.3H25.4412ZM27.4412 248.65H63.0812V244.65H27.4412V248.65ZM61.0812 246.65V260.95H65.0812V246.65H61.0812ZM63.0812 258.95H27.4412V262.95H63.0812V258.95ZM25.4412 260.95V289H29.4412V260.95H25.4412ZM27.4412 287H9.62121V291H27.4412V287ZM11.6212 289V212H7.62121V289H11.6212ZM9.62121 214H67.8112V210H9.62121V214ZM65.8112 212V226.3H69.8112V212H65.8112ZM67.8112 224.3H27.4412V228.3H67.8112V224.3ZM94.7432 285.15L93.7925 286.91L93.8009 286.914L94.7432 285.15ZM79.6732 270.96L77.9509 271.977L77.9581 271.989L77.9656 272.001L79.6732 270.96ZM79.6732 230.15L77.96 229.118L77.9563 229.124L79.6732 230.15ZM94.7432 215.85L93.8009 214.086L93.7926 214.09L94.7432 215.85ZM153.043 230.15L151.33 231.182L151.336 231.191L153.043 230.15ZM153.043 270.96L154.751 272.001L154.756 271.992L153.043 270.96ZM137.973 285.15L138.924 286.91L137.973 285.15ZM128.733 272.06L129.71 273.805L129.724 273.798L129.737 273.79L128.733 272.06ZM137.313 263.26L135.575 262.271L135.567 262.284L135.56 262.297L137.313 263.26ZM137.313 237.74L135.56 238.703L135.567 238.716L135.575 238.729L137.313 237.74ZM128.733 229.05L127.73 230.78L127.743 230.788L127.756 230.795L128.733 229.05ZM104.093 229.05L105.07 230.795L105.084 230.788L105.097 230.78L104.093 229.05ZM95.4032 237.74L93.6646 236.751L93.6572 236.764L93.65 236.777L95.4032 237.74ZM95.4032 263.26L93.65 264.223L93.6572 264.236L93.6646 264.249L95.4032 263.26ZM104.093 272.06L103.09 273.79L103.103 273.798L103.116 273.805L104.093 272.06ZM116.413 288.32C108.717 288.32 101.823 286.664 95.6854 283.386L93.8009 286.914C100.57 290.53 108.122 292.32 116.413 292.32V288.32ZM95.6938 283.39C89.6156 280.107 84.8575 275.621 81.3808 269.919L77.9656 272.001C81.8222 278.326 87.1107 283.3 93.7926 286.91L95.6938 283.39ZM81.3954 269.943C77.9964 264.186 76.2832 257.721 76.2832 250.5H72.2832C72.2832 258.386 74.1632 265.561 77.9509 271.977L81.3954 269.943ZM76.2832 250.5C76.2832 243.279 77.9964 236.855 81.39 231.176L77.9563 229.124C74.1632 235.472 72.2832 242.615 72.2832 250.5H76.2832ZM81.3863 231.182C84.8645 225.408 89.6217 220.89 95.6938 217.61L93.7926 214.09C87.1047 217.703 81.8152 222.718 77.96 229.118L81.3863 231.182ZM95.6854 217.614C101.823 214.336 108.717 212.68 116.413 212.68V208.68C108.122 208.68 100.57 210.47 93.8009 214.086L95.6854 217.614ZM116.413 212.68C124.109 212.68 130.964 214.336 137.023 217.61L138.924 214.09C132.223 210.47 124.704 208.68 116.413 208.68V212.68ZM137.023 217.61C143.095 220.89 147.852 225.408 151.33 231.182L154.756 229.118C150.901 222.718 145.612 217.703 138.924 214.09L137.023 217.61ZM151.336 231.191C154.797 236.868 156.543 243.286 156.543 250.5H160.543C160.543 242.607 158.623 235.459 154.751 229.109L151.336 231.191ZM156.543 250.5C156.543 257.713 154.797 264.173 151.33 269.928L154.756 271.992C158.623 265.574 160.543 258.393 160.543 250.5H156.543ZM151.336 269.919C147.859 275.621 143.101 280.107 137.023 283.39L138.924 286.91C145.606 283.3 150.894 278.326 154.751 272.001L151.336 269.919ZM137.023 283.39C130.964 286.664 124.109 288.32 116.413 288.32V292.32C124.704 292.32 132.223 290.53 138.924 286.91L137.023 283.39ZM116.413 277.14C121.273 277.14 125.721 276.039 129.71 273.805L127.756 270.315C124.412 272.188 120.646 273.14 116.413 273.14V277.14ZM129.737 273.79C133.721 271.479 136.839 268.28 139.066 264.223L135.56 262.297C133.681 265.72 131.079 268.387 127.73 270.33L129.737 273.79ZM139.052 264.249C141.368 260.176 142.503 255.575 142.503 250.5H138.503C138.503 254.958 137.512 258.864 135.575 262.271L139.052 264.249ZM142.503 250.5C142.503 245.425 141.368 240.824 139.052 236.751L135.575 238.729C137.512 242.136 138.503 246.042 138.503 250.5H142.503ZM139.066 236.777C136.836 232.714 133.709 229.544 129.71 227.305L127.756 230.795C131.091 232.662 133.684 235.286 135.56 238.703L139.066 236.777ZM129.737 227.32C125.743 225.004 121.286 223.86 116.413 223.86V227.86C120.634 227.86 124.39 228.843 127.73 230.78L129.737 227.32ZM116.413 223.86C111.541 223.86 107.083 225.004 103.09 227.32L105.097 230.78C108.436 228.843 112.192 227.86 116.413 227.86V223.86ZM103.116 227.305C99.1235 229.541 95.9669 232.703 93.6646 236.751L97.1417 238.729C99.0928 235.297 101.73 232.666 105.07 230.795L103.116 227.305ZM93.65 236.777C91.4164 240.846 90.3232 245.437 90.3232 250.5H94.3232C94.3232 246.03 95.2832 242.114 97.1563 238.703L93.65 236.777ZM90.3232 250.5C90.3232 255.563 91.4164 260.154 93.65 264.223L97.1563 262.297C95.2832 258.886 94.3232 254.97 94.3232 250.5H90.3232ZM93.6646 264.249C95.9636 268.292 99.1119 271.483 103.09 273.79L105.097 270.33C101.741 268.384 99.0961 265.708 97.1417 262.271L93.6646 264.249ZM103.116 273.805C107.105 276.039 111.553 277.14 116.413 277.14V273.14C112.18 273.14 108.414 272.188 105.07 270.315L103.116 273.805ZM220.996 289L219.351 290.138L219.948 291H220.996V289ZM206.146 267.55L207.79 266.412L207.194 265.55H206.146V267.55ZM189.756 267.55V265.55H187.756V267.55H189.756ZM189.756 289V291H191.756V289H189.756ZM171.936 289H169.936V291H171.936V289ZM171.936 212V210H169.936V212H171.936ZM222.976 215.41L222.146 217.23L222.156 217.234L222.976 215.41ZM234.526 254.79L232.862 253.681L232.857 253.687L234.526 254.79ZM222.866 264.25L222.068 262.416L219.827 263.39L221.225 265.394L222.866 264.25ZM240.136 289V291H243.97L241.776 287.856L240.136 289ZM216.486 230.04L215.197 231.57L215.209 231.58L215.221 231.59L216.486 230.04ZM189.756 226.52V224.52H187.756V226.52H189.756ZM189.756 253.36H187.756V255.36H189.756V253.36ZM216.486 249.84L217.774 251.37L216.486 249.84ZM222.64 287.862L207.79 266.412L204.501 268.688L219.351 290.138L222.64 287.862ZM206.146 265.55H205.266V269.55H206.146V265.55ZM205.266 265.55H189.756V269.55H205.266V265.55ZM187.756 267.55V289H191.756V267.55H187.756ZM189.756 287H171.936V291H189.756V287ZM173.936 289V212H169.936V289H173.936ZM171.936 214H205.266V210H171.936V214ZM205.266 214C211.867 214 217.475 215.101 222.146 217.23L223.805 213.59C218.503 211.173 212.304 210 205.266 210V214ZM222.156 217.234C226.906 219.369 230.477 222.357 232.958 226.179L236.313 224.001C233.367 219.463 229.165 215.998 223.795 213.586L222.156 217.234ZM232.958 226.179C235.431 229.989 236.706 234.548 236.706 239.94H240.706C240.706 233.892 239.267 228.551 236.313 224.001L232.958 226.179ZM236.706 239.94C236.706 245.322 235.4 249.873 232.862 253.681L236.19 255.899C239.225 251.347 240.706 245.998 240.706 239.94H236.706ZM232.857 253.687C230.382 257.433 226.817 260.351 222.068 262.416L223.663 266.084C229.034 263.749 233.242 260.36 236.194 255.893L232.857 253.687ZM221.225 265.394L238.495 290.144L241.776 287.856L224.506 263.106L221.225 265.394ZM240.136 287H220.996V291H240.136V287ZM222.666 239.94C222.666 235.147 221.098 231.221 217.75 228.49L215.221 231.59C217.447 233.405 218.666 236.079 218.666 239.94H222.666ZM217.774 228.51C214.491 225.745 209.885 224.52 204.276 224.52V228.52C209.373 228.52 212.907 229.641 215.197 231.57L217.774 228.51ZM204.276 224.52H189.756V228.52H204.276V224.52ZM187.756 226.52V253.36H191.756V226.52H187.756ZM189.756 255.36H204.276V251.36H189.756V255.36ZM204.276 255.36C209.885 255.36 214.491 254.135 217.774 251.37L215.197 248.31C212.907 250.239 209.373 251.36 204.276 251.36V255.36ZM217.774 251.37C221.09 248.578 222.666 244.674 222.666 239.94H218.666C218.666 243.713 217.455 246.409 215.197 248.31L217.774 251.37ZM354.047 289L352.047 289.005L352.051 291H354.047V289ZM353.937 242.8L355.937 242.795L355.919 235.56L352.218 241.777L353.937 242.8ZM331.277 280.86V282.86H332.414L332.995 281.883L331.277 280.86ZM323.247 280.86L321.538 281.899L322.122 282.86H323.247V280.86ZM300.697 243.79L302.405 242.751L298.697 236.654V243.79H300.697ZM300.697 289V291H302.697V289H300.697ZM283.977 289H281.977V291H283.977V289ZM283.977 212V210H281.977V212H283.977ZM298.717 212L300.43 210.968L299.847 210H298.717V212ZM327.537 259.85L325.823 260.882L327.55 263.748L329.257 260.87L327.537 259.85ZM355.917 212V210H354.778L354.197 210.98L355.917 212ZM370.547 212L372.547 211.994L372.541 210H370.547V212ZM370.767 289V291H372.772L372.767 288.994L370.767 289ZM356.047 288.995L355.937 242.795L351.937 242.805L352.047 289.005L356.047 288.995ZM352.218 241.777L329.558 279.837L332.995 281.883L355.655 243.823L352.218 241.777ZM331.277 278.86H323.247V282.86H331.277V278.86ZM324.955 279.821L302.405 242.751L298.988 244.829L321.538 281.899L324.955 279.821ZM298.697 243.79V289H302.697V243.79H298.697ZM300.697 287H283.977V291H300.697V287ZM285.977 289V212H281.977V289H285.977ZM283.977 214H298.717V210H283.977V214ZM297.003 213.032L325.823 260.882L329.25 258.818L300.43 210.968L297.003 213.032ZM329.257 260.87L357.637 213.02L354.197 210.98L325.816 258.83L329.257 260.87ZM355.917 214H370.547V210H355.917V214ZM368.547 212.006L368.767 289.006L372.767 288.994L372.547 211.994L368.547 212.006ZM370.767 287H354.047V291H370.767V287ZM404.655 285.15L403.705 286.91L403.713 286.914L404.655 285.15ZM389.585 270.96L387.863 271.977L387.87 271.989L387.878 272.001L389.585 270.96ZM389.585 230.15L387.872 229.118L387.868 229.124L389.585 230.15ZM404.655 215.85L403.713 214.086L403.705 214.09L404.655 215.85ZM462.955 230.15L461.242 231.182L461.248 231.191L462.955 230.15ZM462.955 270.96L464.663 272.001L464.668 271.992L462.955 270.96ZM447.885 285.15L448.836 286.91L447.885 285.15ZM438.645 272.06L439.622 273.805L439.636 273.798L439.649 273.79L438.645 272.06ZM447.225 263.26L445.487 262.271L445.479 262.284L445.472 262.297L447.225 263.26ZM447.225 237.74L445.472 238.703L445.479 238.716L445.487 238.729L447.225 237.74ZM438.645 229.05L437.642 230.78L437.655 230.788L437.668 230.795L438.645 229.05ZM414.005 229.05L414.982 230.795L414.996 230.788L415.009 230.78L414.005 229.05ZM405.315 237.74L403.577 236.751L403.569 236.764L403.562 236.777L405.315 237.74ZM405.315 263.26L403.562 264.223L403.569 264.236L403.577 264.249L405.315 263.26ZM414.005 272.06L413.002 273.79L413.015 273.798L413.028 273.805L414.005 272.06ZM426.325 288.32C418.63 288.32 411.735 286.664 405.598 283.386L403.713 286.914C410.483 290.53 418.034 292.32 426.325 292.32V288.32ZM405.606 283.39C399.528 280.107 394.77 275.621 391.293 269.919L387.878 272.001C391.734 278.326 397.023 283.3 403.705 286.91L405.606 283.39ZM391.308 269.943C387.909 264.186 386.195 257.721 386.195 250.5H382.195C382.195 258.386 384.075 265.561 387.863 271.977L391.308 269.943ZM386.195 250.5C386.195 243.279 387.909 236.855 391.302 231.176L387.868 229.124C384.075 235.472 382.195 242.615 382.195 250.5H386.195ZM391.298 231.182C394.777 225.408 399.534 220.89 405.606 217.61L403.705 214.09C397.017 217.703 391.727 222.718 387.872 229.118L391.298 231.182ZM405.598 217.614C411.735 214.336 418.63 212.68 426.325 212.68V208.68C418.034 208.68 410.483 210.47 403.713 214.086L405.598 217.614ZM426.325 212.68C434.021 212.68 440.876 214.336 446.935 217.61L448.836 214.09C442.135 210.47 434.616 208.68 426.325 208.68V212.68ZM446.935 217.61C453.007 220.89 457.764 225.408 461.242 231.182L464.668 229.118C460.813 222.718 455.524 217.703 448.836 214.09L446.935 217.61ZM461.248 231.191C464.709 236.868 466.455 243.286 466.455 250.5H470.455C470.455 242.607 468.535 235.459 464.663 229.109L461.248 231.191ZM466.455 250.5C466.455 257.713 464.709 264.173 461.242 269.928L464.668 271.992C468.535 265.574 470.455 258.393 470.455 250.5H466.455ZM461.248 269.919C457.771 275.621 453.013 280.107 446.935 283.39L448.836 286.91C455.518 283.3 460.806 278.326 464.663 272.001L461.248 269.919ZM446.935 283.39C440.876 286.664 434.021 288.32 426.325 288.32V292.32C434.616 292.32 442.135 290.53 448.836 286.91L446.935 283.39ZM426.325 277.14C431.185 277.14 435.633 276.039 439.622 273.805L437.668 270.315C434.324 272.188 430.559 273.14 426.325 273.14V277.14ZM439.649 273.79C443.633 271.479 446.751 268.28 448.978 264.223L445.472 262.297C443.593 265.72 440.991 268.387 437.642 270.33L439.649 273.79ZM448.964 264.249C451.28 260.176 452.415 255.575 452.415 250.5H448.415C448.415 254.958 447.424 258.864 445.487 262.271L448.964 264.249ZM452.415 250.5C452.415 245.425 451.28 240.824 448.964 236.751L445.487 238.729C447.424 242.136 448.415 246.042 448.415 250.5H452.415ZM448.978 236.777C446.748 232.714 443.621 229.544 439.622 227.305L437.668 230.795C441.003 232.662 443.596 235.286 445.472 238.703L448.978 236.777ZM439.649 227.32C435.655 225.004 431.198 223.86 426.325 223.86V227.86C430.546 227.86 434.302 228.843 437.642 230.78L439.649 227.32ZM426.325 223.86C421.453 223.86 416.995 225.004 413.002 227.32L415.009 230.78C418.348 228.843 422.105 227.86 426.325 227.86V223.86ZM413.028 227.305C409.036 229.541 405.879 232.703 403.577 236.751L407.054 238.729C409.005 235.297 411.642 232.666 414.982 230.795L413.028 227.305ZM403.562 236.777C401.329 240.846 400.235 245.437 400.235 250.5H404.235C404.235 246.03 405.195 242.114 407.068 238.703L403.562 236.777ZM400.235 250.5C400.235 255.563 401.329 260.154 403.562 264.223L407.068 262.297C405.195 258.886 404.235 254.97 404.235 250.5H400.235ZM403.577 264.249C405.876 268.292 409.024 271.483 413.002 273.79L415.009 270.33C411.653 268.384 409.008 265.708 407.054 262.271L403.577 264.249ZM413.028 273.805C417.017 276.039 421.465 277.14 426.325 277.14V273.14C422.092 273.14 418.326 272.188 414.982 270.315L413.028 273.805ZM530.908 289L529.263 290.138L529.86 291H530.908V289ZM516.058 267.55L517.702 266.412L517.106 265.55H516.058V267.55ZM499.668 267.55V265.55H497.668V267.55H499.668ZM499.668 289V291H501.668V289H499.668ZM481.848 289H479.848V291H481.848V289ZM481.848 212V210H479.848V212H481.848ZM532.888 215.41L532.058 217.23L532.068 217.234L532.888 215.41ZM544.438 254.79L542.774 253.681L542.769 253.687L544.438 254.79ZM532.778 264.25L531.98 262.416L529.739 263.39L531.138 265.394L532.778 264.25ZM550.048 289V291H553.882L551.688 287.856L550.048 289ZM526.398 230.04L525.109 231.57L525.121 231.58L525.134 231.59L526.398 230.04ZM499.668 226.52V224.52H497.668V226.52H499.668ZM499.668 253.36H497.668V255.36H499.668V253.36ZM526.398 249.84L527.686 251.37L526.398 249.84ZM532.552 287.862L517.702 266.412L514.413 268.688L529.263 290.138L532.552 287.862ZM516.058 265.55H515.178V269.55H516.058V265.55ZM515.178 265.55H499.668V269.55H515.178V265.55ZM497.668 267.55V289H501.668V267.55H497.668ZM499.668 287H481.848V291H499.668V287ZM483.848 289V212H479.848V289H483.848ZM481.848 214H515.178V210H481.848V214ZM515.178 214C521.78 214 527.387 215.101 532.058 217.23L533.717 213.59C528.415 211.173 522.216 210 515.178 210V214ZM532.068 217.234C536.818 219.369 540.389 222.357 542.87 226.179L546.225 224.001C543.279 219.463 539.077 215.998 533.707 213.586L532.068 217.234ZM542.87 226.179C545.343 229.989 546.618 234.548 546.618 239.94H550.618C550.618 233.892 549.179 228.551 546.225 224.001L542.87 226.179ZM546.618 239.94C546.618 245.322 545.312 249.873 542.774 253.681L546.102 255.899C549.137 251.347 550.618 245.998 550.618 239.94H546.618ZM542.769 253.687C540.294 257.433 536.73 260.351 531.98 262.416L533.575 266.084C538.946 263.749 543.154 260.36 546.106 255.893L542.769 253.687ZM531.138 265.394L548.408 290.144L551.688 287.856L534.418 263.106L531.138 265.394ZM550.048 287H530.908V291H550.048V287ZM532.578 239.94C532.578 235.147 531.01 231.221 527.662 228.49L525.134 231.59C527.359 233.405 528.578 236.079 528.578 239.94H532.578ZM527.686 228.51C524.403 225.745 519.797 224.52 514.188 224.52V228.52C519.285 228.52 522.819 229.641 525.109 231.57L527.686 228.51ZM514.188 224.52H499.668V228.52H514.188V224.52ZM497.668 226.52V253.36H501.668V226.52H497.668ZM499.668 255.36H514.188V251.36H499.668V255.36ZM514.188 255.36C519.797 255.36 524.403 254.135 527.686 251.37L525.109 248.31C522.819 250.239 519.285 251.36 514.188 251.36V255.36ZM527.686 251.37C531.002 248.578 532.578 244.674 532.578 239.94H528.578C528.578 243.713 527.367 246.409 525.109 248.31L527.686 251.37ZM622.356 274.7H624.356V272.7H622.356V274.7ZM622.356 289V291H624.356V289H622.356ZM562.736 289H560.736V291H562.736V289ZM562.736 212V210H560.736V212H562.736ZM620.926 212H622.926V210H620.926V212ZM620.926 226.3V228.3H622.926V226.3H620.926ZM580.446 226.3V224.3H578.446V226.3H580.446ZM580.446 243.02H578.446V245.02H580.446V243.02ZM616.196 243.02H618.196V241.02H616.196V243.02ZM616.196 256.88V258.88H618.196V256.88H616.196ZM580.446 256.88V254.88H578.446V256.88H580.446ZM580.446 274.7H578.446V276.7H580.446V274.7ZM620.356 274.7V289H624.356V274.7H620.356ZM622.356 287H562.736V291H622.356V287ZM564.736 289V212H560.736V289H564.736ZM562.736 214H620.926V210H562.736V214ZM618.926 212V226.3H622.926V212H618.926ZM620.926 224.3H580.446V228.3H620.926V224.3ZM578.446 226.3V243.02H582.446V226.3H578.446ZM580.446 245.02H616.196V241.02H580.446V245.02ZM614.196 243.02V256.88H618.196V243.02H614.196ZM616.196 254.88H580.446V258.88H616.196V254.88ZM578.446 256.88V274.7H582.446V256.88H578.446ZM580.446 276.7H622.356V272.7H580.446V276.7ZM683.638 226.52H685.638V224.52H683.638V226.52ZM658.998 226.52H656.998V228.52H658.998V226.52ZM658.998 212V210H656.998V212H658.998ZM726.098 212H728.098V210H726.098V212ZM726.098 226.52V228.52H728.098V226.52H726.098ZM701.458 226.52V224.52H699.458V226.52H701.458ZM701.458 289V291H703.458V289H701.458ZM683.638 289H681.638V291H683.638V289ZM683.638 224.52H658.998V228.52H683.638V224.52ZM660.998 226.52V212H656.998V226.52H660.998ZM658.998 214H726.098V210H658.998V214ZM724.098 212V226.52H728.098V212H724.098ZM726.098 224.52H701.458V228.52H726.098V224.52ZM699.458 226.52V289H703.458V226.52H699.458ZM701.458 287H683.638V291H701.458V287ZM685.638 289V226.52H681.638V289H685.638ZM782.529 272.5L784.377 271.736L783.866 270.5H782.529V272.5ZM746.779 272.5V270.5H745.441L744.93 271.736L746.779 272.5ZM739.958 289V291H741.296L741.807 289.764L739.958 289ZM721.698 289L719.872 288.186L718.617 291H721.698V289ZM756.018 212V210H754.72L754.192 211.186L756.018 212ZM773.618 212L775.444 211.184L774.915 210H773.618V212ZM808.048 289V291H811.134L809.874 288.184L808.048 289ZM789.348 289L787.5 289.764L788.011 291H789.348V289ZM776.918 258.97V260.97H779.912L778.766 258.205L776.918 258.97ZM764.708 229.49L766.556 228.725L764.708 224.263L762.861 228.725L764.708 229.49ZM752.498 258.97L750.651 258.205L749.505 260.97H752.498V258.97ZM782.529 270.5H746.779V274.5H782.529V270.5ZM744.93 271.736L738.11 288.236L741.807 289.764L748.627 273.264L744.93 271.736ZM739.958 287H721.698V291H739.958V287ZM723.525 289.814L757.845 212.814L754.192 211.186L719.872 288.186L723.525 289.814ZM756.018 214H773.618V210H756.018V214ZM771.793 212.816L806.223 289.816L809.874 288.184L775.444 211.184L771.793 212.816ZM808.048 287H789.348V291H808.048V287ZM791.197 288.236L784.377 271.736L780.68 273.264L787.5 289.764L791.197 288.236ZM778.766 258.205L766.556 228.725L762.861 230.255L775.071 259.735L778.766 258.205ZM762.861 228.725L750.651 258.205L754.346 259.735L766.556 230.255L762.861 228.725ZM752.498 260.97H776.918V256.97H752.498V260.97ZM816.037 212V210H814.037V212H816.037ZM833.857 212H835.857V210H833.857V212ZM833.857 274.48H831.857V276.48H833.857V274.48ZM872.467 274.48H874.467V272.48H872.467V274.48ZM872.467 289V291H874.467V289H872.467ZM816.037 289H814.037V291H816.037V289ZM816.037 214H833.857V210H816.037V214ZM831.857 212V274.48H835.857V212H831.857ZM833.857 276.48H872.467V272.48H833.857V276.48ZM870.467 274.48V289H874.467V274.48H870.467ZM872.467 287H816.037V291H872.467V287ZM818.037 289V212H814.037V289H818.037ZM910.474 258.75L912.025 257.487L910.596 255.733L909.031 257.366L910.474 258.75ZM900.134 269.53L898.691 268.146L898.134 268.726V269.53H900.134ZM900.134 289V291H902.134V289H900.134ZM882.424 289H880.424V291H882.424V289ZM882.424 212V210H880.424V212H882.424ZM900.134 212H902.134V210H900.134V212ZM900.134 247.97H898.134V252.987L901.585 249.346L900.134 247.97ZM934.234 212V210H933.374L932.783 210.624L934.234 212ZM954.034 212L955.499 213.362L958.623 210H954.034V212ZM922.134 246.32L920.669 244.958L919.501 246.215L920.566 247.561L922.134 246.32ZM955.904 289V291H960.037L957.472 287.759L955.904 289ZM935.114 289L933.563 290.263L934.164 291H935.114V289ZM909.031 257.366L898.691 268.146L901.577 270.914L911.917 260.134L909.031 257.366ZM898.134 269.53V289H902.134V269.53H898.134ZM900.134 287H882.424V291H900.134V287ZM884.424 289V212H880.424V289H884.424ZM882.424 214H900.134V210H882.424V214ZM898.134 212V247.97H902.134V212H898.134ZM901.585 249.346L935.685 213.376L932.783 210.624L898.682 246.594L901.585 249.346ZM934.234 214H954.034V210H934.234V214ZM952.569 210.638L920.669 244.958L923.599 247.682L955.499 213.362L952.569 210.638ZM920.566 247.561L954.336 290.241L957.472 287.759L923.702 245.079L920.566 247.561ZM955.904 287H935.114V291H955.904V287ZM936.665 287.737L912.025 257.487L908.923 260.013L933.563 290.263L936.665 287.737ZM961.54 286.8L962.954 285.386L961.54 286.8ZM961.54 271.51L962.901 272.976L962.914 272.963L962.928 272.95L961.54 271.51ZM976.72 271.51L975.331 272.95L975.345 272.963L975.359 272.976L976.72 271.51ZM976.72 286.8L975.306 285.386L976.72 286.8ZM969.13 287.88C966.633 287.88 964.618 287.049 962.954 285.386L960.125 288.214C962.568 290.657 965.614 291.88 969.13 291.88V287.88ZM962.954 285.386C961.3 283.732 960.46 281.685 960.46 279.1H956.46C956.46 282.675 957.673 285.761 960.125 288.214L962.954 285.386ZM960.46 279.1C960.46 276.426 961.308 274.454 962.901 272.976L960.179 270.044C957.665 272.379 956.46 275.468 956.46 279.1H960.46ZM962.928 272.95C964.587 271.35 966.61 270.54 969.13 270.54V266.54C965.636 266.54 962.599 267.71 960.151 270.07L962.928 272.95ZM969.13 270.54C971.649 270.54 973.673 271.35 975.331 272.95L978.108 270.07C975.66 267.71 972.623 266.54 969.13 266.54V270.54ZM975.359 272.976C976.951 274.454 977.8 276.426 977.8 279.1H981.8C981.8 275.468 980.595 272.379 978.081 270.044L975.359 272.976ZM977.8 279.1C977.8 281.685 976.959 283.732 975.306 285.386L978.134 288.214C980.587 285.761 981.8 282.675 981.8 279.1H977.8ZM975.306 285.386C973.642 287.049 971.627 287.88 969.13 287.88V291.88C972.646 291.88 975.691 290.657 978.134 288.214L975.306 285.386Z" fill="white"/>
<path d="M607.231 28.5H571.481L564.661 12H546.401L580.721 89H598.321L632.751 12H614.051L607.231 28.5ZM601.621 42.03L589.411 71.51L577.201 42.03H601.621Z" fill="#8DC843"/>
<path d="M515.149 173.7V188H574.769V111H516.579V125.3H557.059V142.02H521.309V155.88H557.059V173.7H515.149Z" fill="#3EB892"/>
<path d="M391.169 12V89H405.799L444.189 42.25V89H461.789V12H447.049L408.769 58.75V12H391.169Z" fill="#4AB9EF"/>
</svg>
