<svg width="971" height="81" viewBox="0 0 971 81" fill="none" xmlns="http://www.w3.org/2000/svg">
<path d="M18.4412 16.3V14.3H16.4412V16.3H18.4412ZM18.4412 36.65H16.4412V38.65H18.4412V36.65ZM54.0812 36.65H56.0812V34.65H54.0812V36.65ZM54.0812 50.95V52.95H56.0812V50.95H54.0812ZM18.4412 50.95V48.95H16.4412V50.95H18.4412ZM18.4412 79V81H20.4412V79H18.4412ZM0.621211 79H-1.37879V81H0.621211V79ZM0.621211 1.99999V-5.72205e-06H-1.37879V1.99999H0.621211ZM58.8112 1.99999H60.8112V-5.72205e-06H58.8112V1.99999ZM58.8112 16.3V18.3H60.8112V16.3H58.8112ZM16.4412 16.3V36.65H20.4412V16.3H16.4412ZM18.4412 38.65H54.0812V34.65H18.4412V38.65ZM52.0812 36.65V50.95H56.0812V36.65H52.0812ZM54.0812 48.95H18.4412V52.95H54.0812V48.95ZM16.4412 50.95V79H20.4412V50.95H16.4412ZM18.4412 77H0.621211V81H18.4412V77ZM2.62121 79V1.99999H-1.37879V79H2.62121ZM0.621211 3.99999H58.8112V-5.72205e-06H0.621211V3.99999ZM56.8112 1.99999V16.3H60.8112V1.99999H56.8112ZM58.8112 14.3H18.4412V18.3H58.8112V14.3ZM85.7432 75.15L84.7925 76.9097L84.8009 76.9142L85.7432 75.15ZM70.6732 60.96L68.9509 61.9768L68.9581 61.989L68.9656 62.0012L70.6732 60.96ZM70.6732 20.15L68.96 19.118L68.9563 19.1241L70.6732 20.15ZM85.7432 5.85L84.8009 4.08583L84.7926 4.09036L85.7432 5.85ZM144.043 20.15L142.33 21.182L142.336 21.1912L144.043 20.15ZM144.043 60.96L145.751 62.0012L145.756 61.992L144.043 60.96ZM128.973 75.15L129.924 76.9096L128.973 75.15ZM119.733 62.06L120.71 63.805L120.724 63.7976L120.737 63.7901L119.733 62.06ZM128.313 53.26L126.575 52.2714L126.567 52.2844L126.56 52.2975L128.313 53.26ZM128.313 27.74L126.56 28.7025L126.567 28.7156L126.575 28.7286L128.313 27.74ZM119.733 19.05L118.73 20.7801L118.743 20.7876L118.756 20.795L119.733 19.05ZM95.0932 19.05L96.0704 20.795L96.0835 20.7876L96.0966 20.7801L95.0932 19.05ZM86.4032 27.74L84.6646 26.7514L84.6572 26.7644L84.65 26.7775L86.4032 27.74ZM86.4032 53.26L84.65 54.2225L84.6572 54.2356L84.6646 54.2486L86.4032 53.26ZM95.0932 62.06L94.0897 63.7901L94.1028 63.7976L94.116 63.805L95.0932 62.06ZM107.413 78.32C99.7174 78.32 92.8225 76.6637 86.6854 73.3858L84.8009 76.9142C91.5705 80.5297 99.1223 82.32 107.413 82.32V78.32ZM86.6938 73.3904C80.6156 70.1067 75.8575 65.6206 72.3808 59.9188L68.9656 62.0012C72.8222 68.326 78.1107 73.2999 84.7926 76.9096L86.6938 73.3904ZM72.3954 59.9432C68.9964 54.1858 67.2832 47.7211 67.2832 40.5H63.2832C63.2832 48.3855 65.1632 55.5609 68.9509 61.9768L72.3954 59.9432ZM67.2832 40.5C67.2832 33.2786 68.9964 26.8549 72.39 21.1759L68.9563 19.1241C65.1632 25.4718 63.2832 32.6147 63.2832 40.5H67.2832ZM72.3863 21.182C75.8645 15.4082 80.6217 10.89 86.6938 7.60964L84.7926 4.09036C78.1047 7.70335 72.8152 12.7184 68.96 19.118L72.3863 21.182ZM86.6854 7.61415C92.8225 4.33635 99.7174 2.68 107.413 2.68V-1.32C99.1223 -1.32 91.5705 0.470314 84.8009 4.08585L86.6854 7.61415ZM107.413 2.68C115.109 2.68 121.964 4.33642 128.023 7.60964L129.924 4.09035C123.223 0.47024 115.704 -1.32 107.413 -1.32V2.68ZM128.023 7.60964C134.095 10.89 138.852 15.4082 142.33 21.182L145.756 19.118C141.901 12.7184 136.612 7.70335 129.924 4.09035L128.023 7.60964ZM142.336 21.1912C145.797 26.8681 147.543 33.2863 147.543 40.5H151.543C151.543 32.607 149.623 25.4586 145.751 19.1088L142.336 21.1912ZM147.543 40.5C147.543 47.7135 145.797 54.1726 142.33 59.928L145.756 61.992C149.623 55.574 151.543 48.3932 151.543 40.5H147.543ZM142.336 59.9188C138.859 65.6206 134.101 70.1067 128.023 73.3904L129.924 76.9096C136.606 73.2999 141.894 68.326 145.751 62.0012L142.336 59.9188ZM128.023 73.3904C121.964 76.6636 115.109 78.32 107.413 78.32V82.32C115.704 82.32 123.223 80.5298 129.924 76.9096L128.023 73.3904ZM107.413 67.14C112.273 67.14 116.721 66.0391 120.71 63.805L118.756 60.315C115.412 62.1876 111.646 63.14 107.413 63.14V67.14ZM120.737 63.7901C124.721 61.4793 127.839 58.2797 130.066 54.2225L126.56 52.2975C124.681 55.7203 122.079 58.3873 118.73 60.3299L120.737 63.7901ZM130.052 54.2486C132.368 50.1757 133.503 45.575 133.503 40.5H129.503C129.503 44.9583 128.512 48.8643 126.575 52.2714L130.052 54.2486ZM133.503 40.5C133.503 35.425 132.368 30.8243 130.052 26.7514L126.575 28.7286C128.512 32.1357 129.503 36.0417 129.503 40.5H133.503ZM130.066 26.7775C127.836 22.7144 124.709 19.5443 120.71 17.305L118.756 20.795C122.091 22.6624 124.684 25.2856 126.56 28.7025L130.066 26.7775ZM120.737 17.3199C116.743 15.0036 112.286 13.86 107.413 13.86V17.86C111.634 17.86 115.39 18.843 118.73 20.7801L120.737 17.3199ZM107.413 13.86C102.541 13.86 98.0834 15.0036 94.0897 17.3199L96.0966 20.7801C99.4363 18.843 103.192 17.86 107.413 17.86V13.86ZM94.116 17.305C90.1235 19.5408 86.9669 22.7025 84.6646 26.7514L88.1417 28.7286C90.0928 25.2975 92.7295 22.6659 96.0704 20.795L94.116 17.305ZM84.65 26.7775C82.4164 30.8458 81.3232 35.437 81.3232 40.5H85.3232C85.3232 36.0297 86.2832 32.1142 88.1563 28.7025L84.65 26.7775ZM81.3232 40.5C81.3232 45.563 82.4164 50.1542 84.65 54.2225L88.1563 52.2975C86.2832 48.8858 85.3232 44.9703 85.3232 40.5H81.3232ZM84.6646 54.2486C86.9636 58.2916 90.1119 61.4829 94.0897 63.7901L96.0966 60.3299C92.7411 58.3838 90.0961 55.7084 88.1417 52.2714L84.6646 54.2486ZM94.116 63.805C98.1054 66.0391 102.553 67.14 107.413 67.14V63.14C103.18 63.14 99.4143 62.1876 96.0704 60.315L94.116 63.805ZM211.996 79L210.351 80.1384L210.948 81H211.996V79ZM197.146 57.55L198.79 56.4116L198.194 55.55H197.146V57.55ZM180.756 57.55V55.55H178.756V57.55H180.756ZM180.756 79V81H182.756V79H180.756ZM162.936 79H160.936V81H162.936V79ZM162.936 1.99999V-5.72205e-06H160.936V1.99999H162.936ZM213.976 5.41L213.146 7.22984L213.156 7.23433L213.976 5.41ZM225.526 44.79L223.862 43.6806L223.857 43.6875L225.526 44.79ZM213.866 54.25L213.068 52.4159L210.827 53.3903L212.225 55.3945L213.866 54.25ZM231.136 79V81H234.97L232.776 77.8555L231.136 79ZM207.486 20.04L206.197 21.5698L206.209 21.5799L206.221 21.5897L207.486 20.04ZM180.756 16.52V14.52H178.756V16.52H180.756ZM180.756 43.36H178.756V45.36H180.756V43.36ZM207.486 39.84L208.774 41.3698L207.486 39.84ZM213.64 77.8616L198.79 56.4116L195.501 58.6884L210.351 80.1384L213.64 77.8616ZM197.146 55.55H196.266V59.55H197.146V55.55ZM196.266 55.55H180.756V59.55H196.266V55.55ZM178.756 57.55V79H182.756V57.55H178.756ZM180.756 77H162.936V81H180.756V77ZM164.936 79V1.99999H160.936V79H164.936ZM162.936 3.99999H196.266V-5.72205e-06H162.936V3.99999ZM196.266 3.99999C202.867 3.99999 208.475 5.10052 213.146 7.22981L214.805 3.59018C209.503 1.1728 203.304 -5.72205e-06 196.266 -5.72205e-06V3.99999ZM213.156 7.23433C217.906 9.36854 221.477 12.3572 223.958 16.1789L227.313 14.0011C224.367 9.46278 220.165 5.99812 214.795 3.58566L213.156 7.23433ZM223.958 16.1789C226.431 19.9888 227.706 24.5479 227.706 29.94H231.706C231.706 23.8921 230.267 18.5511 227.313 14.0011L223.958 16.1789ZM227.706 29.94C227.706 35.3216 226.4 39.8731 223.862 43.6806L227.19 45.8994C230.225 41.3469 231.706 35.9984 231.706 29.94H227.706ZM223.857 43.6875C221.382 47.4329 217.817 50.351 213.068 52.4159L214.663 56.0841C220.034 53.749 224.242 50.3604 227.194 45.8925L223.857 43.6875ZM212.225 55.3945L229.495 80.1445L232.776 77.8555L215.506 53.1055L212.225 55.3945ZM231.136 77H211.996V81H231.136V77ZM213.666 29.94C213.666 25.1475 212.098 21.2213 208.75 18.4903L206.221 21.5897C208.447 23.4054 209.666 26.0792 209.666 29.94H213.666ZM208.774 18.5102C205.491 15.7453 200.885 14.52 195.276 14.52V18.52C200.373 18.52 203.907 19.6414 206.197 21.5698L208.774 18.5102ZM195.276 14.52H180.756V18.52H195.276V14.52ZM178.756 16.52V43.36H182.756V16.52H178.756ZM180.756 45.36H195.276V41.36H180.756V45.36ZM195.276 45.36C200.885 45.36 205.491 44.1347 208.774 41.3698L206.197 38.3102C203.907 40.2386 200.373 41.36 195.276 41.36V45.36ZM208.774 41.3698C212.09 38.5777 213.666 34.6735 213.666 29.94H209.666C209.666 33.7131 208.455 36.409 206.197 38.3102L208.774 41.3698ZM345.047 79L343.047 79.0048L343.051 81H345.047V79ZM344.937 32.8L346.937 32.7952L346.919 25.5602L343.218 31.7769L344.937 32.8ZM322.277 70.86V72.86H323.414L323.995 71.8831L322.277 70.86ZM314.247 70.86L312.538 71.8994L313.122 72.86H314.247V70.86ZM291.697 33.79L293.405 32.7506L289.697 26.6539V33.79H291.697ZM291.697 79V81H293.697V79H291.697ZM274.977 79H272.977V81H274.977V79ZM274.977 1.99999V-5.72205e-06H272.977V1.99999H274.977ZM289.717 1.99999L291.43 0.968109L290.847 -5.72205e-06H289.717V1.99999ZM318.537 49.85L316.823 50.8819L318.55 53.7483L320.257 50.8703L318.537 49.85ZM346.917 1.99999V-5.72205e-06H345.778L345.197 0.97974L346.917 1.99999ZM361.547 1.99999L363.547 1.99428L363.541 -5.72205e-06H361.547V1.99999ZM361.767 79V81H363.772L363.767 78.9943L361.767 79ZM347.047 78.9952L346.937 32.7952L342.937 32.8048L343.047 79.0048L347.047 78.9952ZM343.218 31.7769L320.558 69.8369L323.995 71.8831L346.655 33.8231L343.218 31.7769ZM322.277 68.86H314.247V72.86H322.277V68.86ZM315.955 69.8206L293.405 32.7506L289.988 34.8294L312.538 71.8994L315.955 69.8206ZM289.697 33.79V79H293.697V33.79H289.697ZM291.697 77H274.977V81H291.697V77ZM276.977 79V1.99999H272.977V79H276.977ZM274.977 3.99999H289.717V-5.72205e-06H274.977V3.99999ZM288.003 3.03188L316.823 50.8819L320.25 48.8181L291.43 0.968109L288.003 3.03188ZM320.257 50.8703L348.637 3.02025L345.197 0.97974L316.816 48.8297L320.257 50.8703ZM346.917 3.99999H361.547V-5.72205e-06H346.917V3.99999ZM359.547 2.00571L359.767 79.0057L363.767 78.9943L363.547 1.99428L359.547 2.00571ZM361.767 77H345.047V81H361.767V77ZM395.655 75.15L394.705 76.9097L394.713 76.9142L395.655 75.15ZM380.585 60.96L378.863 61.9768L378.87 61.989L378.878 62.0012L380.585 60.96ZM380.585 20.15L378.872 19.118L378.868 19.1241L380.585 20.15ZM395.655 5.85L394.713 4.08583L394.705 4.09036L395.655 5.85ZM453.955 20.15L452.242 21.182L452.248 21.1912L453.955 20.15ZM453.955 60.96L455.663 62.0012L455.668 61.992L453.955 60.96ZM438.885 75.15L439.836 76.9096L438.885 75.15ZM429.645 62.06L430.622 63.805L430.636 63.7976L430.649 63.7901L429.645 62.06ZM438.225 53.26L436.487 52.2714L436.479 52.2844L436.472 52.2975L438.225 53.26ZM438.225 27.74L436.472 28.7025L436.479 28.7156L436.487 28.7286L438.225 27.74ZM429.645 19.05L428.642 20.7801L428.655 20.7876L428.668 20.795L429.645 19.05ZM405.005 19.05L405.982 20.795L405.996 20.7876L406.009 20.7801L405.005 19.05ZM396.315 27.74L394.577 26.7514L394.569 26.7644L394.562 26.7775L396.315 27.74ZM396.315 53.26L394.562 54.2225L394.569 54.2356L394.577 54.2486L396.315 53.26ZM405.005 62.06L404.002 63.7901L404.015 63.7976L404.028 63.805L405.005 62.06ZM417.325 78.32C409.63 78.32 402.735 76.6637 396.598 73.3858L394.713 76.9142C401.483 80.5297 409.034 82.32 417.325 82.32V78.32ZM396.606 73.3904C390.528 70.1067 385.77 65.6206 382.293 59.9188L378.878 62.0012C382.734 68.326 388.023 73.2999 394.705 76.9096L396.606 73.3904ZM382.308 59.9432C378.909 54.1858 377.195 47.7211 377.195 40.5H373.195C373.195 48.3855 375.075 55.5609 378.863 61.9768L382.308 59.9432ZM377.195 40.5C377.195 33.2786 378.909 26.8549 382.302 21.1759L378.868 19.1241C375.075 25.4718 373.195 32.6147 373.195 40.5H377.195ZM382.298 21.182C385.777 15.4082 390.534 10.89 396.606 7.60964L394.705 4.09036C388.017 7.70335 382.727 12.7184 378.872 19.118L382.298 21.182ZM396.598 7.61415C402.735 4.33635 409.63 2.68 417.325 2.68V-1.32C409.034 -1.32 401.483 0.470314 394.713 4.08585L396.598 7.61415ZM417.325 2.68C425.021 2.68 431.876 4.33642 437.935 7.60964L439.836 4.09035C433.135 0.47024 425.616 -1.32 417.325 -1.32V2.68ZM437.935 7.60964C444.007 10.89 448.764 15.4082 452.242 21.182L455.668 19.118C451.813 12.7184 446.524 7.70335 439.836 4.09035L437.935 7.60964ZM452.248 21.1912C455.709 26.8681 457.455 33.2863 457.455 40.5H461.455C461.455 32.607 459.535 25.4586 455.663 19.1088L452.248 21.1912ZM457.455 40.5C457.455 47.7135 455.709 54.1726 452.242 59.928L455.668 61.992C459.535 55.574 461.455 48.3932 461.455 40.5H457.455ZM452.248 59.9188C448.771 65.6206 444.013 70.1067 437.935 73.3904L439.836 76.9096C446.518 73.2999 451.806 68.326 455.663 62.0012L452.248 59.9188ZM437.935 73.3904C431.876 76.6636 425.021 78.32 417.325 78.32V82.32C425.616 82.32 433.135 80.5298 439.836 76.9096L437.935 73.3904ZM417.325 67.14C422.185 67.14 426.633 66.0391 430.622 63.805L428.668 60.315C425.324 62.1876 421.559 63.14 417.325 63.14V67.14ZM430.649 63.7901C434.633 61.4793 437.751 58.2797 439.978 54.2225L436.472 52.2975C434.593 55.7203 431.991 58.3873 428.642 60.3299L430.649 63.7901ZM439.964 54.2486C442.28 50.1757 443.415 45.575 443.415 40.5H439.415C439.415 44.9583 438.424 48.8643 436.487 52.2714L439.964 54.2486ZM443.415 40.5C443.415 35.425 442.28 30.8243 439.964 26.7514L436.487 28.7286C438.424 32.1357 439.415 36.0417 439.415 40.5H443.415ZM439.978 26.7775C437.748 22.7144 434.621 19.5443 430.622 17.305L428.668 20.795C432.003 22.6624 434.596 25.2856 436.472 28.7025L439.978 26.7775ZM430.649 17.3199C426.655 15.0036 422.198 13.86 417.325 13.86V17.86C421.546 17.86 425.302 18.843 428.642 20.7801L430.649 17.3199ZM417.325 13.86C412.453 13.86 407.995 15.0036 404.002 17.3199L406.009 20.7801C409.348 18.843 413.105 17.86 417.325 17.86V13.86ZM404.028 17.305C400.036 19.5408 396.879 22.7025 394.577 26.7514L398.054 28.7286C400.005 25.2975 402.642 22.6659 405.982 20.795L404.028 17.305ZM394.562 26.7775C392.329 30.8458 391.235 35.437 391.235 40.5H395.235C395.235 36.0297 396.195 32.1142 398.068 28.7025L394.562 26.7775ZM391.235 40.5C391.235 45.563 392.329 50.1542 394.562 54.2225L398.068 52.2975C396.195 48.8858 395.235 44.9703 395.235 40.5H391.235ZM394.577 54.2486C396.876 58.2916 400.024 61.4829 404.002 63.7901L406.009 60.3299C402.653 58.3838 400.008 55.7084 398.054 52.2714L394.577 54.2486ZM404.028 63.805C408.017 66.0391 412.465 67.14 417.325 67.14V63.14C413.092 63.14 409.326 62.1876 405.982 60.315L404.028 63.805ZM521.908 79L520.263 80.1384L520.86 81H521.908V79ZM507.058 57.55L508.702 56.4116L508.106 55.55H507.058V57.55ZM490.668 57.55V55.55H488.668V57.55H490.668ZM490.668 79V81H492.668V79H490.668ZM472.848 79H470.848V81H472.848V79ZM472.848 1.99999V-5.72205e-06H470.848V1.99999H472.848ZM523.888 5.41L523.058 7.22984L523.068 7.23433L523.888 5.41ZM535.438 44.79L533.774 43.6806L533.769 43.6875L535.438 44.79ZM523.778 54.25L522.98 52.4159L520.739 53.3903L522.138 55.3945L523.778 54.25ZM541.048 79V81H544.882L542.688 77.8555L541.048 79ZM517.398 20.04L516.109 21.5698L516.121 21.5799L516.134 21.5897L517.398 20.04ZM490.668 16.52V14.52H488.668V16.52H490.668ZM490.668 43.36H488.668V45.36H490.668V43.36ZM517.398 39.84L518.686 41.3698L517.398 39.84ZM523.552 77.8616L508.702 56.4116L505.413 58.6884L520.263 80.1384L523.552 77.8616ZM507.058 55.55H506.178V59.55H507.058V55.55ZM506.178 55.55H490.668V59.55H506.178V55.55ZM488.668 57.55V79H492.668V57.55H488.668ZM490.668 77H472.848V81H490.668V77ZM474.848 79V1.99999H470.848V79H474.848ZM472.848 3.99999H506.178V-5.72205e-06H472.848V3.99999ZM506.178 3.99999C512.78 3.99999 518.387 5.10052 523.058 7.22981L524.717 3.59018C519.415 1.1728 513.216 -5.72205e-06 506.178 -5.72205e-06V3.99999ZM523.068 7.23433C527.818 9.36854 531.389 12.3572 533.87 16.1789L537.225 14.0011C534.279 9.46278 530.077 5.99812 524.707 3.58566L523.068 7.23433ZM533.87 16.1789C536.343 19.9888 537.618 24.5479 537.618 29.94H541.618C541.618 23.8921 540.179 18.5511 537.225 14.0011L533.87 16.1789ZM537.618 29.94C537.618 35.3216 536.312 39.8731 533.774 43.6806L537.102 45.8994C540.137 41.3469 541.618 35.9984 541.618 29.94H537.618ZM533.769 43.6875C531.294 47.4329 527.73 50.351 522.98 52.4159L524.575 56.0841C529.946 53.749 534.154 50.3604 537.106 45.8925L533.769 43.6875ZM522.138 55.3945L539.408 80.1445L542.688 77.8555L525.418 53.1055L522.138 55.3945ZM541.048 77H521.908V81H541.048V77ZM523.578 29.94C523.578 25.1475 522.01 21.2213 518.662 18.4903L516.134 21.5897C518.359 23.4054 519.578 26.0792 519.578 29.94H523.578ZM518.686 18.5102C515.403 15.7453 510.797 14.52 505.188 14.52V18.52C510.285 18.52 513.819 19.6414 516.109 21.5698L518.686 18.5102ZM505.188 14.52H490.668V18.52H505.188V14.52ZM488.668 16.52V43.36H492.668V16.52H488.668ZM490.668 45.36H505.188V41.36H490.668V45.36ZM505.188 45.36C510.797 45.36 515.403 44.1347 518.686 41.3698L516.109 38.3102C513.819 40.2386 510.285 41.36 505.188 41.36V45.36ZM518.686 41.3698C522.002 38.5777 523.578 34.6735 523.578 29.94H519.578C519.578 33.7131 518.367 36.409 516.109 38.3102L518.686 41.3698ZM613.356 64.7H615.356V62.7H613.356V64.7ZM613.356 79V81H615.356V79H613.356ZM553.736 79H551.736V81H553.736V79ZM553.736 1.99999V-5.72205e-06H551.736V1.99999H553.736ZM611.926 1.99999H613.926V-5.72205e-06H611.926V1.99999ZM611.926 16.3V18.3H613.926V16.3H611.926ZM571.446 16.3V14.3H569.446V16.3H571.446ZM571.446 33.02H569.446V35.02H571.446V33.02ZM607.196 33.02H609.196V31.02H607.196V33.02ZM607.196 46.88V48.88H609.196V46.88H607.196ZM571.446 46.88V44.88H569.446V46.88H571.446ZM571.446 64.7H569.446V66.7H571.446V64.7ZM611.356 64.7V79H615.356V64.7H611.356ZM613.356 77H553.736V81H613.356V77ZM555.736 79V1.99999H551.736V79H555.736ZM553.736 3.99999H611.926V-5.72205e-06H553.736V3.99999ZM609.926 1.99999V16.3H613.926V1.99999H609.926ZM611.926 14.3H571.446V18.3H611.926V14.3ZM569.446 16.3V33.02H573.446V16.3H569.446ZM571.446 35.02H607.196V31.02H571.446V35.02ZM605.196 33.02V46.88H609.196V33.02H605.196ZM607.196 44.88H571.446V48.88H607.196V44.88ZM569.446 46.88V64.7H573.446V46.88H569.446ZM571.446 66.7H613.356V62.7H571.446V66.7ZM674.638 16.52H676.638V14.52H674.638V16.52ZM649.998 16.52H647.998V18.52H649.998V16.52ZM649.998 1.99999V-5.72205e-06H647.998V1.99999H649.998ZM717.098 1.99999H719.098V-5.72205e-06H717.098V1.99999ZM717.098 16.52V18.52H719.098V16.52H717.098ZM692.458 16.52V14.52H690.458V16.52H692.458ZM692.458 79V81H694.458V79H692.458ZM674.638 79H672.638V81H674.638V79ZM674.638 14.52H649.998V18.52H674.638V14.52ZM651.998 16.52V1.99999H647.998V16.52H651.998ZM649.998 3.99999H717.098V-5.72205e-06H649.998V3.99999ZM715.098 1.99999V16.52H719.098V1.99999H715.098ZM717.098 14.52H692.458V18.52H717.098V14.52ZM690.458 16.52V79H694.458V16.52H690.458ZM692.458 77H674.638V81H692.458V77ZM676.638 79V16.52H672.638V79H676.638ZM773.529 62.5L775.377 61.736L774.866 60.5H773.529V62.5ZM737.779 62.5V60.5H736.441L735.93 61.736L737.779 62.5ZM730.958 79V81H732.296L732.807 79.764L730.958 79ZM712.698 79L710.872 78.1858L709.617 81H712.698V79ZM747.018 1.99999V-5.72205e-06H745.72L745.192 1.18578L747.018 1.99999ZM764.618 1.99999L766.444 1.18361L765.915 -5.72205e-06H764.618V1.99999ZM799.048 79V81H802.134L800.874 78.1836L799.048 79ZM780.348 79L778.5 79.764L779.011 81H780.348V79ZM767.918 48.97V50.97H770.912L769.766 48.2047L767.918 48.97ZM755.708 19.49L757.556 18.7247L755.708 14.2634L753.861 18.7247L755.708 19.49ZM743.498 48.97L741.651 48.2047L740.505 50.97H743.498V48.97ZM773.529 60.5H737.779V64.5H773.529V60.5ZM735.93 61.736L729.11 78.236L732.807 79.764L739.627 63.264L735.93 61.736ZM730.958 77H712.698V81H730.958V77ZM714.525 79.8142L748.845 2.81421L745.192 1.18578L710.872 78.1858L714.525 79.8142ZM747.018 3.99999H764.618V-5.72205e-06H747.018V3.99999ZM762.793 2.81638L797.223 79.8164L800.874 78.1836L766.444 1.18361L762.793 2.81638ZM799.048 77H780.348V81H799.048V77ZM782.197 78.236L775.377 61.736L771.68 63.264L778.5 79.764L782.197 78.236ZM769.766 48.2047L757.556 18.7247L753.861 20.2553L766.071 49.7353L769.766 48.2047ZM753.861 18.7247L741.651 48.2047L745.346 49.7353L757.556 20.2553L753.861 18.7247ZM743.498 50.97H767.918V46.97H743.498V50.97ZM807.037 1.99999V-5.72205e-06H805.037V1.99999H807.037ZM824.857 1.99999H826.857V-5.72205e-06H824.857V1.99999ZM824.857 64.48H822.857V66.48H824.857V64.48ZM863.467 64.48H865.467V62.48H863.467V64.48ZM863.467 79V81H865.467V79H863.467ZM807.037 79H805.037V81H807.037V79ZM807.037 3.99999H824.857V-5.72205e-06H807.037V3.99999ZM822.857 1.99999V64.48H826.857V1.99999H822.857ZM824.857 66.48H863.467V62.48H824.857V66.48ZM861.467 64.48V79H865.467V64.48H861.467ZM863.467 77H807.037V81H863.467V77ZM809.037 79V1.99999H805.037V79H809.037ZM901.474 48.75L903.025 47.4869L901.596 45.7333L900.031 47.3655L901.474 48.75ZM891.134 59.53L889.691 58.1455L889.134 58.7259V59.53H891.134ZM891.134 79V81H893.134V79H891.134ZM873.424 79H871.424V81H873.424V79ZM873.424 1.99999V-5.72205e-06H871.424V1.99999H873.424ZM891.134 1.99999H893.134V-5.72205e-06H891.134V1.99999ZM891.134 37.97H889.134V42.9867L892.585 39.346L891.134 37.97ZM925.234 1.99999V-5.72205e-06H924.374L923.783 0.624014L925.234 1.99999ZM945.034 1.99999L946.499 3.36162L949.623 -5.72205e-06H945.034V1.99999ZM913.134 36.32L911.669 34.9584L910.501 36.2153L911.566 37.561L913.134 36.32ZM946.904 79V81H951.037L948.472 77.759L946.904 79ZM926.114 79L924.563 80.2631L925.164 81H926.114V79ZM900.031 47.3655L889.691 58.1455L892.577 60.9145L902.917 50.1345L900.031 47.3655ZM889.134 59.53V79H893.134V59.53H889.134ZM891.134 77H873.424V81H891.134V77ZM875.424 79V1.99999H871.424V79H875.424ZM873.424 3.99999H891.134V-5.72205e-06H873.424V3.99999ZM889.134 1.99999V37.97H893.134V1.99999H889.134ZM892.585 39.346L926.685 3.37598L923.783 0.624014L889.682 36.594L892.585 39.346ZM925.234 3.99999H945.034V-5.72205e-06H925.234V3.99999ZM943.569 0.638372L911.669 34.9584L914.599 37.6816L946.499 3.36162L943.569 0.638372ZM911.566 37.561L945.336 80.241L948.472 77.759L914.702 35.079L911.566 37.561ZM946.904 77H926.114V81H946.904V77ZM927.665 77.7369L903.025 47.4869L899.923 50.0131L924.563 80.2631L927.665 77.7369ZM952.54 76.8L953.954 75.3858L952.54 76.8ZM952.54 61.51L953.901 62.9756L953.914 62.9628L953.928 62.9497L952.54 61.51ZM967.72 61.51L966.331 62.9497L966.345 62.9628L966.359 62.9756L967.72 61.51ZM967.72 76.8L966.306 75.3858L967.72 76.8ZM960.13 77.88C957.633 77.88 955.618 77.0495 953.954 75.3858L951.125 78.2142C953.568 80.6572 956.614 81.88 960.13 81.88V77.88ZM953.954 75.3858C952.3 73.732 951.46 71.6853 951.46 69.1H947.46C947.46 72.6747 948.673 75.7613 951.125 78.2142L953.954 75.3858ZM951.46 69.1C951.46 66.4258 952.308 64.4544 953.901 62.9756L951.179 60.0444C948.665 62.3789 947.46 65.4675 947.46 69.1H951.46ZM953.928 62.9497C955.587 61.3501 957.61 60.54 960.13 60.54V56.54C956.636 56.54 953.599 57.7099 951.151 60.0703L953.928 62.9497ZM960.13 60.54C962.649 60.54 964.673 61.3501 966.331 62.9497L969.108 60.0703C966.66 57.7099 963.623 56.54 960.13 56.54V60.54ZM966.359 62.9756C967.951 64.4544 968.8 66.4258 968.8 69.1H972.8C972.8 65.4675 971.595 62.3789 969.081 60.0444L966.359 62.9756ZM968.8 69.1C968.8 71.6853 967.959 73.732 966.306 75.3858L969.134 78.2142C971.587 75.7613 972.8 72.6747 972.8 69.1H968.8ZM966.306 75.3858C964.642 77.0495 962.627 77.88 960.13 77.88V81.88C963.646 81.88 966.691 80.6572 969.134 78.2142L966.306 75.3858Z" fill="white"/>
</svg>
