<svg xmlns="http://www.w3.org/2000/svg" width="146.724" height="20.589" viewBox="0 0 146.724 20.589">
  <path id="Path_4" data-name="Path 4" d="M305.645,195.479c0-.987.852-1.781,3.2-1.781a11.691,11.691,0,0,1,5.487,1.527l1.728-4.156a14.845,14.845,0,0,0-7.186-1.724c-5.881,0-8.763,2.886-8.763,6.421,0,7.351,11.253,5.061,11.253,8.2,0,.966-.908,1.614-3.226,1.614a12.465,12.465,0,0,1-6.528-1.95l-1.841,4.127a15.586,15.586,0,0,0,8.341,2.178c5.88,0,8.763-2.94,8.763-6.392C316.87,196.245,305.645,198.506,305.645,195.479Zm24.821,5.687L323.5,189.742h-4.607v19.8h5.176V199.328l5.062,8.259h2.493l5.089-8.545v10.495h5.2v-19.8h-4.669Zm24.651-11.822c-6.338,0-11,4.353-11,10.294s4.665,10.294,11,10.294,11-4.356,11-10.294S361.445,189.345,355.117,189.345Zm0,15.949a5.664,5.664,0,1,1,5.341-5.655A5.3,5.3,0,0,1,355.117,205.294Zm18.733-15.552h-5.606v19.8h15.048V205.1H373.85Zm17.193,0h-5.6v19.8H400.49V205.1h-9.447Zm20.156,0-8.734,19.8h5.709l1.559-3.845h8.37l1.552,3.845h5.831l-8.775-19.8Zm.173,11.818,2.543-6.334,2.55,6.334ZM441,189.742V200.29l-8.742-10.549h-4.606v19.8h5.49V198.989l8.735,10.548h4.611v-19.8Z" transform="translate(-299.765 -189.345)" fill="#fff"/>
</svg>
